<svg xmlns="http://www.w3.org/2000/svg" width="128" height="128" fill="none"><path fill="#F7C42B" d="m80.382 57.494 5.456 11.064a.649.649 0 0 0 .458.357L98.482 70.7c.357.05.561.357.51.714 0 .153-.102.255-.204.356l-8.82 8.617a.576.576 0 0 0-.153.561l2.09 12.135c.051.357-.153.663-.51.714-.153 0-.255 0-.408-.05l-10.86-5.864c-.204-.102-.408-.102-.56 0l-10.912 5.71c-.306.153-.663.051-.816-.255-.051-.102-.102-.255-.051-.408l2.09-12.135c.051-.204-.05-.408-.153-.56l-8.82-8.617a.587.587 0 0 1 0-.867.822.822 0 0 1 .356-.204l12.187-1.785a.648.648 0 0 0 .458-.357l5.456-11.064c.153-.306.51-.459.816-.306.05.204.153.306.204.459Z"/><path fill="#fff" d="m79.804 60.032-4.844 9.432c-.254.51-.764.816-1.274.867L63.13 71.3l11.167.51a1.55 1.55 0 0 0 1.58-1.07l3.926-10.708Z"/><path fill="#EAAA1F" d="m67.992 91.554-.255 1.376c-.051.357.153.663.51.714.153 0 .255 0 .407-.05l10.912-5.711c.204-.102.408-.102.56 0l10.912 5.71c.306.153.663.051.816-.255.05-.102.102-.255.05-.407l-2.09-12.136c-.05-.204.051-.407.153-.56l8.821-8.617a.587.587 0 0 0 0-.867.822.822 0 0 0-.357-.204l-4.079-.612c-6.577 11.982-16.673 18.203-26.36 21.619Z"/><path fill="#F7C42B" d="m36.906 57.494 5.456 11.064a.648.648 0 0 0 .459.357L55.007 70.7c.357.05.56.356.51.713 0 .153-.102.255-.204.357l-8.821 8.617c-.153.153-.204.357-.153.561l2.09 12.135c.051.357-.153.663-.51.714-.152 0-.254 0-.407-.051l-10.86-5.864c-.205-.102-.409-.102-.562 0l-10.91 5.711c-.307.153-.664.051-.817-.255-.05-.102-.102-.255-.05-.408l2.09-12.135c.05-.204-.051-.408-.153-.56l-8.821-8.618a.587.587 0 0 1 0-.866.822.822 0 0 1 .357-.204l12.186-1.785a.649.649 0 0 0 .459-.357l5.455-11.064c.153-.306.51-.408.816-.255.051.204.153.306.204.408Z"/><path fill="#fff" d="m36.33 60.032-4.845 9.432c-.255.51-.764.816-1.274.867l-10.555.969 11.167.51a1.55 1.55 0 0 0 1.58-1.07l3.926-10.708Z"/><path fill="#EAAA1F" d="m24.516 91.554-.255 1.376c-.05.357.153.663.51.714.153 0 .255 0 .408-.05l10.911-5.711c.204-.102.408-.102.561 0l10.911 5.71c.306.153.663.051.816-.255.051-.102.102-.255.051-.407l-2.09-12.136c-.051-.204.05-.407.153-.56l8.82-8.617a.587.587 0 0 0 0-.867.822.822 0 0 0-.356-.204l-4.08-.612C44.3 81.917 34.205 88.138 24.517 91.554Z"/></svg>