<svg xmlns="http://www.w3.org/2000/svg" width="128" height="128" fill="none"><path fill="#EE3684" d="M53.558 69.837v-.078c-.008-4.902-1.798-9.384-7.13-9.376-4.235.008-8.448 4.817-9.28 7.667-.843-2.848-5.066-7.65-9.301-7.642-5.33.008-7.107 4.502-7.101 9.403v.079c-.027 1.066.018 11.917 16.432 20.736h.003c16.399-8.87 16.407-19.724 16.377-20.789Z"/><path fill="#CC1965" d="M31.272 86.88a46.409 46.409 0 0 0 5.912 3.744h.003C53.574 81.753 53.582 70.9 53.552 69.835v-.078c0-.615-.058-1.228-.17-1.833C48.24 80.4 37.986 85.11 31.271 86.88Z"/><path fill="#EE3684" d="M93.997 69.837v-.078c-.007-4.902-1.798-9.384-7.128-9.376-4.236.008-8.448 4.817-9.282 7.667-.843-2.848-5.065-7.65-9.3-7.642-5.33.008-7.107 4.502-7.1 9.403v.079c-.026 1.066.017 11.917 16.431 20.736h.006c16.394-8.87 16.404-19.724 16.373-20.789Z"/><path fill="#CC1965" d="M71.71 86.88a46.402 46.402 0 0 0 5.912 3.744h.006C94.014 81.753 94.023 70.9 93.993 69.835v-.078a10.174 10.174 0 0 0-.17-1.833C88.68 80.4 78.426 85.11 71.71 86.88Z"/><path fill="#fff" d="M62.519 68.681s-.094-6.447 6.903-6.535a10.75 10.75 0 0 0-6.903 6.535Z"/></svg>