<svg xmlns="http://www.w3.org/2000/svg" width="128" height="128" fill="none"><path fill="#F7D85D" d="M99.763 65.75c0-.38-.29-.76-.674-.854-.29-.095-7.031-3.134-19.167-3.134-6.742 0-10.402 1.044-13.58 1.9-2.697.759-4.913 1.424-8.573 1.424s-5.971-.665-8.572-1.425c-3.178-.95-6.838-1.9-13.58-1.9-12.136 0-18.878 3.04-19.167 3.135-.385.19-.578.475-.674.855l-.385 5.128c0 .475.289.855.674 1.045.481.19.963.57 1.06.665.096.19.192.76.385 1.52.577 2.659 1.54 7.502 2.793 10.732 1.444 3.704 2.985 5.318 6.55 6.838 2.118.95 5.393 1.52 8.667 1.52 3.083 0 5.972-.57 8.38-1.52 6.164-2.66 7.609-6.553 9.535-11.587.29-.76.482-1.425.77-1.995 1.35-3.704 1.542-4.178 3.66-4.178 2.023 0 2.312.474 3.66 4.178.193.57.482 1.235.771 1.995 1.83 5.034 3.371 9.022 9.535 11.587 2.408 1.044 5.298 1.52 8.38 1.52 3.178 0 6.453-.57 8.668-1.52 3.564-1.52 5.105-3.134 6.55-6.838 1.252-3.23 2.215-8.073 2.793-10.733.192-.854.289-1.424.385-1.614.096-.19.578-.57 1.06-.665.481-.19.674-.57.674-1.045l-.578-5.033ZM47.175 83.132c-1.927 3.989-5.972 5.983-12.04 5.983-4.912 0-7.898-1.044-9.728-3.514-1.733-2.374-3.948-12.346-2.504-15.48 1.349-2.945 7.513-3.99 12.907-3.99 5.586 0 12.328 1.14 13.676 3.61 1.349 2.564.578 7.598-2.311 13.391Zm42.86 2.47c-1.83 2.469-4.816 3.513-9.728 3.513-6.068 0-10.113-1.994-12.04-5.983-2.792-5.793-3.66-10.827-2.31-13.391 1.348-2.47 7.993-3.61 13.676-3.61 5.297 0 11.558 1.045 12.906 3.99 1.445 3.039-.77 13.106-2.504 15.48Z"/></svg>