<svg xmlns="http://www.w3.org/2000/svg" width="128" height="128" fill="none"><path fill="#E2E8F0" d="M10.986 67.031H5.994v4.993h4.992V67.03ZM20.972 67.031h-4.993v4.993h4.993V67.03ZM15.979 72.024h-4.993v4.992h4.993v-4.992ZM25.965 72.024h-4.993v4.992h4.992v-4.992ZM20.972 77.017h-4.993v4.992h4.993v-4.992ZM30.957 77.017h-4.993v4.992h4.993v-4.992ZM82.46 67.031h-4.992v4.993h4.993V67.03ZM87.454 72.024H82.46v4.992h4.993v-4.992ZM92.446 77.017h-4.992v4.992h4.992v-4.992ZM82.46 77.017h-4.992v4.992h4.993v-4.992ZM72.475 67.031h-4.992v4.993h4.992V67.03ZM77.468 72.024h-4.993v4.992h4.993v-4.992Z"/><path fill="#171A22" d="M10.986 72.024H5.994v4.992h4.992v-4.992ZM20.972 72.024h-4.993v4.992h4.993v-4.992ZM15.979 77.017h-4.993v4.992h4.993v-4.992Z"/><path fill="#171A22" d="M1.001 62.038v9.986h4.993v-4.99h4.993v4.99h4.99v-4.99h4.993v4.99h4.99v4.993h4.993v4.99H25.96v-4.99h-4.99v4.99h-4.993V87h29.957v-4.991h4.993v-4.99h4.99v-4.995h6.568v4.993h4.99v4.99h4.994V87h29.962v-4.991h4.99v-4.99h4.993v-4.995h4.99v-9.985H1.001Zm86.453 19.97v-4.99h-4.99v4.99H77.47v-4.99h-4.99v-4.994h-4.993v-4.99h4.993v4.99h4.99v-4.99h4.993v4.99h4.99v4.993h4.993v4.99l-4.993.002Z"/><path fill="#171A22" d="M82.46 72.024h-4.992v4.992h4.993v-4.992Z"/><path stroke="#fff" stroke-miterlimit="10" stroke-width="1.018" d="M1.001 62.038v9.986h4.993v4.99h4.99v4.992h4.992V87h29.957v-4.99h4.99v-4.995h4.992v-4.99h6.569v4.99h4.992v4.992h4.993V87h29.962v-4.99h4.993v-4.995h4.992v-4.99h4.993v-9.985H1.001Z"/></svg>