<svg xmlns="http://www.w3.org/2000/svg" width="128" height="128" fill="none"><path fill="#000" d="m111.755 63.386-.139 2.649s-1.733 5.983-1.733 8.833c0 2.849 1.733 15.386 1.733 15.386l-1.733 2.849c-2.408 6.933-6.743 10.257-6.743 10.257-16.758 11.397-29.376 12.157-29.376 12.157-1.926 1.139-6.934 2.089-8.572 1.424-1.637-.664-11.269-1.424-12.81-.949-1.637.474-6.26 0-6.26 0-22.923-8.263-25.716-19.375-25.716-19.375-1.638-3.324-2.6-7.123-2.6-7.123s.48-1.14.962-1.9.674-14.151.674-14.151l-1.733-1.045c1.252-1.14 1.733-5.888 1.733-5.888l-.963-2.565c1.445-1.234 1.927-5.413 1.927-5.413-3.468-6.173-2.697-15.766-2.697-15.766-7.031-10.637-5.586-32.861-5.586-32.861 6.934-4.274 28.124 21.37 28.124 21.37 1.637 1.614 9.824 5.508 9.824 5.508 6.26 2.09 25.427.285 25.427.285 2.697-.76 10.402-6.933 10.402-6.933 12.81-23.08 24.849-22.13 24.849-22.13 11.847 11.207-.481 47.203-.481 47.203.77 1.14.77 5.508.77 5.508l.717 2.67Z"/><path fill="#4A5568" d="M13.475 31.369s-.482-16.336.674-17.856c0 0 5.393-2.469 20.996 18.805h-3.37l.77 2.375s-4.527 2.944-4.623 5.603c0 0 4.527-.475 5.779 1.33 0 0-3.275 7.978-5.394 6.743l-.096 2.66s-3.757 1.234-4.527 0c0 0 1.348 2.659 2.408 2.944 0 0-3.564 5.223-8.187-6.364 0 0-.096-3.894 0-4.938-.193 0-3.564-5.319-4.43-11.302ZM115.667 30.42s-1.059-17.19-5.971-19.849c0 0-7.898-1.804-15.314 13.296l3.66-.664-3.66 2.849 3.66-.285-4.335 2.564 4.72-.57-7.224 4.75s3.275-.95 5.008-.76l-2.889 1.804s2.023-.475 3.467 0c0 0-3.37 1.425-5.586 3.134h3.756l-2.696 3.04s-3.853 4.748 3.852 8.072c7.705 3.324 3.757 6.173 3.757 6.173s4.237 3.04 4.815 4.844c0 0 7.031-8.358 9.054-15.86 0-.285 1.734-9.783 1.926-12.537ZM88.883 70.215s-3.95-3.704-12.232-1.9c-8.187 1.805-7.994 13.392-7.994 13.392s4.045 4.654 12.906 1.235c8.86-3.42 7.32-12.727 7.32-12.727ZM39.472 69.644C30.13 66.13 29.36 74.963 29.36 74.963s.482 8.452 7.224 9.877c6.742 1.425 9.054-1.9 9.054-1.9s3.178-9.782-6.165-13.296ZM65.767 92.153s.096-4.084-8.283-4.179c-8.476-.19-7.031 4.18-7.031 4.18 3.274-1.52 6.838 6.457 7.898 9.022-1.156 2.944-5.49 4.748-5.49 4.748 2.985-.284 5.971-1.614 5.971-1.614 4.527 1.14 7.128 0 7.128 0-2.697-.19-6.165-2.185-7.224-2.849-.193-9.308 7.03-9.308 7.03-9.308Z"/><path fill="#fff" d="M38.614 69.93c-4.045 0-7.223 3.419-7.223 7.598 0 4.178 3.274 7.598 7.223 7.598 4.046 0 7.224-3.42 7.224-7.598 0-4.18-4.43-7.598-7.224-7.598ZM78.382 68.219c-2.215 0-4.334.95-5.875 2.47l.096-.096-.288.285c-.193.19-.386.38-.578.665-.482.57-1.13 1.825-1.343 2.537-.214.713-.198 1.642-.198 1.832 0 5.033 4.334 7.598 8.572 7.598 3.178 0 7.705-3.42 7.705-7.598.096-4.084-3.756-7.693-8.09-7.693Z"/><path fill="#000" d="M40.247 75.912c-.674 0-1.252-.285-1.252-.664 0-.38.578-.665 1.252-.665.29 0 .482 0 .674.095-.289-.475-.674-.95-1.06-1.425 0 0-1.059-1.045-2.214-.38 0 .665-.29 1.235-.578 1.235-.193 0-.386-.19-.482-.475-1.348 1.235-3.949 4.464.77 8.358 0 0 1.35.855 2.601-.57 1.252-1.425 2.697-3.134 1.252-5.984 0 .285-.385.475-.963.475ZM82.43 74.868c-.097-.38-.193-.76-.386-1.14-.096.19-.289.285-.385.285-.289 0-.482-.19-.482-.57 0-.285.193-.475.482-.475-1.156-1.52-3.082-2.374-4.43-1.9 0 0-.77.38-1.541 1.046v.284c0 .57-.29 1.045-.675 1.045-.192 0-.289-.095-.385-.285-.481.76-.77 1.805-.481 3.04.866 3.419 4.43 4.083 5.104 3.893.674-.095 3.468-2.659 3.179-5.223Zm-2.697-.19c-.578 0-1.06-.285-1.06-.665 0-.38.482-.665 1.06-.665.578 0 1.06.285 1.06.665 0 .38-.482.665-1.06.665Z"/></svg>